<mxfile host="app.diagrams.net" modified="2024-03-28T08:38:12.881Z" agent="Mozilla/5.0 (Windows NT 10.0; Win64; x64) AppleWebKit/537.36 (KHTML, like Gecko) Chrome/120.0.0.0 Safari/537.36" etag="qnarMc323Q7mO4m8Fn_A" version="24.1.0" type="github">
  <diagram name="Page-1" id="SbXUC4eFiqZalO4KHA39">
    <mxGraphModel dx="1434" dy="750" grid="1" gridSize="10" guides="1" tooltips="1" connect="1" arrows="1" fold="1" page="1" pageScale="1" pageWidth="827" pageHeight="1169" math="0" shadow="0">
      <root>
        <mxCell id="0" />
        <mxCell id="1" parent="0" />
        <mxCell id="DuLAGQzurzoh75MX_VvH-1" value="" style="rounded=1;whiteSpace=wrap;html=1;" vertex="1" parent="1">
          <mxGeometry x="30" y="60" width="280" height="290" as="geometry" />
        </mxCell>
        <mxCell id="DuLAGQzurzoh75MX_VvH-5" value="OMER" style="verticalLabelPosition=bottom;sketch=0;aspect=fixed;html=1;verticalAlign=top;strokeColor=none;align=center;outlineConnect=0;shape=mxgraph.citrix.database;" vertex="1" parent="1">
          <mxGeometry x="148.5" y="120" width="42.5" height="50" as="geometry" />
        </mxCell>
        <mxCell id="DuLAGQzurzoh75MX_VvH-6" value="RSmart" style="verticalLabelPosition=bottom;sketch=0;aspect=fixed;html=1;verticalAlign=top;strokeColor=none;align=center;outlineConnect=0;shape=mxgraph.citrix.license_server;" vertex="1" parent="1">
          <mxGeometry x="137.5" y="220" width="65" height="85" as="geometry" />
        </mxCell>
        <mxCell id="DuLAGQzurzoh75MX_VvH-7" value="" style="endArrow=classic;html=1;rounded=0;" edge="1" parent="1" source="DuLAGQzurzoh75MX_VvH-6" target="DuLAGQzurzoh75MX_VvH-5">
          <mxGeometry width="50" height="50" relative="1" as="geometry">
            <mxPoint x="248.5" y="210" as="sourcePoint" />
            <mxPoint x="298.5" y="160" as="targetPoint" />
          </mxGeometry>
        </mxCell>
        <mxCell id="DuLAGQzurzoh75MX_VvH-8" value="RP" style="text;html=1;align=center;verticalAlign=middle;whiteSpace=wrap;rounded=0;fillColor=#f8cecc;strokeColor=#b85450;" vertex="1" parent="1">
          <mxGeometry x="300" y="20" width="60" height="30" as="geometry" />
        </mxCell>
        <mxCell id="DuLAGQzurzoh75MX_VvH-9" value="" style="rounded=1;whiteSpace=wrap;html=1;" vertex="1" parent="1">
          <mxGeometry x="30" y="410" width="280" height="290" as="geometry" />
        </mxCell>
        <mxCell id="DuLAGQzurzoh75MX_VvH-10" value="EnquÃªte Famille" style="text;html=1;align=center;verticalAlign=middle;whiteSpace=wrap;rounded=0;fillColor=#f8cecc;strokeColor=#b85450;" vertex="1" parent="1">
          <mxGeometry x="260" y="370" width="130" height="30" as="geometry" />
        </mxCell>
        <mxCell id="DuLAGQzurzoh75MX_VvH-16" value="clone OMER" style="verticalLabelPosition=bottom;sketch=0;aspect=fixed;html=1;verticalAlign=top;strokeColor=none;align=center;outlineConnect=0;shape=mxgraph.citrix.database;" vertex="1" parent="1">
          <mxGeometry x="148.75" y="500" width="42.5" height="50" as="geometry" />
        </mxCell>
        <mxCell id="DuLAGQzurzoh75MX_VvH-17" value="" style="curved=1;endArrow=classic;html=1;rounded=0;" edge="1" parent="1" source="DuLAGQzurzoh75MX_VvH-5" target="DuLAGQzurzoh75MX_VvH-16">
          <mxGeometry width="50" height="50" relative="1" as="geometry">
            <mxPoint x="460" y="270" as="sourcePoint" />
            <mxPoint x="510" y="220" as="targetPoint" />
            <Array as="points">
              <mxPoint x="270" y="250" />
              <mxPoint x="270" y="410" />
            </Array>
          </mxGeometry>
        </mxCell>
        <mxCell id="DuLAGQzurzoh75MX_VvH-18" value="DMZ" style="text;html=1;align=center;verticalAlign=middle;whiteSpace=wrap;rounded=0;fillColor=#dae8fc;strokeColor=#6c8ebf;" vertex="1" parent="1">
          <mxGeometry x="140" width="60" height="30" as="geometry" />
        </mxCell>
        <mxCell id="DuLAGQzurzoh75MX_VvH-19" value="INTERNE" style="text;html=1;align=center;verticalAlign=middle;whiteSpace=wrap;rounded=0;fillColor=#dae8fc;strokeColor=#6c8ebf;" vertex="1" parent="1">
          <mxGeometry x="580" width="60" height="30" as="geometry" />
        </mxCell>
        <mxCell id="DuLAGQzurzoh75MX_VvH-20" value="" style="endArrow=none;html=1;rounded=0;" edge="1" parent="1">
          <mxGeometry width="50" height="50" relative="1" as="geometry">
            <mxPoint x="330" y="660" as="sourcePoint" />
            <mxPoint x="330" y="10" as="targetPoint" />
          </mxGeometry>
        </mxCell>
        <mxCell id="DuLAGQzurzoh75MX_VvH-21" value="" style="rounded=1;whiteSpace=wrap;html=1;" vertex="1" parent="1">
          <mxGeometry x="370" y="60" width="390" height="290" as="geometry" />
        </mxCell>
        <mxCell id="DuLAGQzurzoh75MX_VvH-22" value="" style="rounded=1;whiteSpace=wrap;html=1;" vertex="1" parent="1">
          <mxGeometry x="370" y="410" width="400" height="290" as="geometry" />
        </mxCell>
        <mxCell id="DuLAGQzurzoh75MX_VvH-23" value="ERA" style="verticalLabelPosition=bottom;sketch=0;aspect=fixed;html=1;verticalAlign=top;strokeColor=none;align=center;outlineConnect=0;shape=mxgraph.citrix.license_server;" vertex="1" parent="1">
          <mxGeometry x="430" y="500" width="65" height="85" as="geometry" />
        </mxCell>
        <mxCell id="DuLAGQzurzoh75MX_VvH-24" value="ProTools" style="verticalLabelPosition=bottom;sketch=0;aspect=fixed;html=1;verticalAlign=top;strokeColor=none;align=center;outlineConnect=0;shape=mxgraph.citrix.license_server;" vertex="1" parent="1">
          <mxGeometry x="650" y="500" width="65" height="85" as="geometry" />
        </mxCell>
        <mxCell id="DuLAGQzurzoh75MX_VvH-25" value="" style="endArrow=none;html=1;rounded=0;" edge="1" parent="1">
          <mxGeometry width="50" height="50" relative="1" as="geometry">
            <mxPoint x="30" y="366" as="sourcePoint" />
            <mxPoint x="760" y="366" as="targetPoint" />
          </mxGeometry>
        </mxCell>
        <mxCell id="DuLAGQzurzoh75MX_VvH-37" value="" style="curved=1;endArrow=classic;html=1;rounded=0;" edge="1" parent="1" source="DuLAGQzurzoh75MX_VvH-23" target="DuLAGQzurzoh75MX_VvH-16">
          <mxGeometry width="50" height="50" relative="1" as="geometry">
            <mxPoint x="400" y="840" as="sourcePoint" />
            <mxPoint x="450" y="790" as="targetPoint" />
            <Array as="points">
              <mxPoint x="420" y="525" />
              <mxPoint x="310" y="530" />
            </Array>
          </mxGeometry>
        </mxCell>
        <mxCell id="DuLAGQzurzoh75MX_VvH-2" value="Odic" style="verticalLabelPosition=bottom;sketch=0;aspect=fixed;html=1;verticalAlign=top;strokeColor=none;align=center;outlineConnect=0;shape=mxgraph.citrix.database;" vertex="1" parent="1">
          <mxGeometry x="470" y="170" width="42.5" height="50" as="geometry" />
        </mxCell>
        <mxCell id="DuLAGQzurzoh75MX_VvH-3" value="" style="verticalLabelPosition=bottom;sketch=0;aspect=fixed;html=1;verticalAlign=top;strokeColor=none;align=center;outlineConnect=0;shape=mxgraph.citrix.license_server;" vertex="1" parent="1">
          <mxGeometry x="563" y="160" width="65" height="85" as="geometry" />
        </mxCell>
        <mxCell id="DuLAGQzurzoh75MX_VvH-4" value="" style="endArrow=classic;html=1;rounded=0;" edge="1" parent="1" source="DuLAGQzurzoh75MX_VvH-3" target="DuLAGQzurzoh75MX_VvH-2">
          <mxGeometry width="50" height="50" relative="1" as="geometry">
            <mxPoint x="570" y="260" as="sourcePoint" />
            <mxPoint x="620" y="210" as="targetPoint" />
          </mxGeometry>
        </mxCell>
        <mxCell id="DuLAGQzurzoh75MX_VvH-40" value="" style="curved=1;endArrow=classic;html=1;rounded=0;" edge="1" parent="1" source="DuLAGQzurzoh75MX_VvH-23" target="DuLAGQzurzoh75MX_VvH-2">
          <mxGeometry width="50" height="50" relative="1" as="geometry">
            <mxPoint x="390" y="360" as="sourcePoint" />
            <mxPoint x="440" y="310" as="targetPoint" />
            <Array as="points">
              <mxPoint x="480" y="400" />
              <mxPoint x="470" y="320" />
            </Array>
          </mxGeometry>
        </mxCell>
        <mxCell id="DuLAGQzurzoh75MX_VvH-41" value="" style="endArrow=classic;html=1;rounded=0;" edge="1" parent="1" source="DuLAGQzurzoh75MX_VvH-24" target="DuLAGQzurzoh75MX_VvH-23">
          <mxGeometry width="50" height="50" relative="1" as="geometry">
            <mxPoint x="760" y="450" as="sourcePoint" />
            <mxPoint x="810" y="400" as="targetPoint" />
          </mxGeometry>
        </mxCell>
      </root>
    </mxGraphModel>
  </diagram>
</mxfile>
